<svg width="250" height="250" viewBox="0 0 250 250" fill="none" xmlns="http://www.w3.org/2000/svg">
<path d="M171.875 93.75C171.875 106.182 166.936 118.105 158.146 126.896C149.355 135.686 137.432 140.625 125 140.625C112.568 140.625 100.645 135.686 91.8544 126.896C83.0636 118.105 78.125 106.182 78.125 93.75C78.125 81.318 83.0636 69.3951 91.8544 60.6044C100.645 51.8136 112.568 46.875 125 46.875C137.432 46.875 149.355 51.8136 158.146 60.6044C166.936 69.3951 171.875 81.318 171.875 93.75Z" fill="#787A80"/>
<path fill-rule="evenodd" clip-rule="evenodd" d="M0 125C0 91.8479 13.1696 60.0537 36.6117 36.6117C60.0537 13.1696 91.8479 0 125 0C158.152 0 189.946 13.1696 213.388 36.6117C236.83 60.0537 250 91.8479 250 125C250 158.152 236.83 189.946 213.388 213.388C189.946 236.83 158.152 250 125 250C91.8479 250 60.0537 236.83 36.6117 213.388C13.1696 189.946 0 158.152 0 125ZM125 15.625C104.403 15.6261 84.2245 21.4432 66.7875 32.4067C49.3506 43.3702 35.3638 59.0345 26.4369 77.5968C17.5101 96.159 14.006 116.865 16.3281 137.331C18.6502 157.796 26.704 177.191 39.5625 193.281C50.6563 175.406 75.0781 156.25 125 156.25C174.922 156.25 199.328 175.391 210.438 193.281C223.296 177.191 231.35 157.796 233.672 137.331C235.994 116.865 232.49 96.159 223.563 77.5968C214.636 59.0345 200.649 43.3702 183.212 32.4067C165.776 21.4432 145.597 15.6261 125 15.625Z" fill="#787A80"/>
</svg>
