<svg width="172" height="24" viewBox="0 0 172 24" fill="none" xmlns="http://www.w3.org/2000/svg">
<path d="M5.215 5.045V10.145H12.085V13.895H5.215V19.1H14.185V23H0.115V1.145H14.185V5.045H5.215ZM28.8623 14.645L26.8373 8.66C26.6873 8.28 26.5273 7.835 26.3573 7.325C26.1873 6.805 26.0173 6.245 25.8473 5.645C25.6973 6.255 25.5373 6.82 25.3673 7.34C25.1973 7.86 25.0373 8.31 24.8873 8.69L22.8773 14.645H28.8623ZM36.9173 23H32.9873C32.5473 23 32.1923 22.9 31.9223 22.7C31.6523 22.49 31.4473 22.225 31.3073 21.905L30.0173 18.095H21.7073L20.4173 21.905C20.3073 22.185 20.1073 22.44 19.8173 22.67C19.5373 22.89 19.1873 23 18.7673 23H14.8073L23.2673 1.145H28.4573L36.9173 23ZM50.7154 5.585C50.5654 5.825 50.4054 6.005 50.2354 6.125C50.0754 6.245 49.8654 6.305 49.6054 6.305C49.3754 6.305 49.1254 6.235 48.8554 6.095C48.5954 5.945 48.2954 5.78 47.9554 5.6C47.6254 5.42 47.2454 5.26 46.8154 5.12C46.3854 4.97 45.8954 4.895 45.3454 4.895C44.3954 4.895 43.6854 5.1 43.2154 5.51C42.7554 5.91 42.5254 6.455 42.5254 7.145C42.5254 7.585 42.6654 7.95 42.9454 8.24C43.2254 8.53 43.5904 8.78 44.0404 8.99C44.5004 9.2 45.0204 9.395 45.6004 9.575C46.1904 9.745 46.7904 9.94 47.4004 10.16C48.0104 10.37 48.6054 10.62 49.1854 10.91C49.7754 11.2 50.2954 11.57 50.7454 12.02C51.2054 12.47 51.5754 13.02 51.8554 13.67C52.1354 14.31 52.2754 15.085 52.2754 15.995C52.2754 17.005 52.1004 17.95 51.7504 18.83C51.4004 19.71 50.8904 20.48 50.2204 21.14C49.5604 21.79 48.7404 22.305 47.7604 22.685C46.7904 23.055 45.6854 23.24 44.4454 23.24C43.7654 23.24 43.0704 23.17 42.3604 23.03C41.6604 22.89 40.9804 22.695 40.3204 22.445C39.6604 22.185 39.0404 21.88 38.4604 21.53C37.8804 21.18 37.3754 20.79 36.9454 20.36L38.4454 17.99C38.5654 17.82 38.7204 17.68 38.9104 17.57C39.1104 17.45 39.3254 17.39 39.5554 17.39C39.8554 17.39 40.1554 17.485 40.4554 17.675C40.7654 17.865 41.1104 18.075 41.4904 18.305C41.8804 18.535 42.3254 18.745 42.8254 18.935C43.3254 19.125 43.9154 19.22 44.5954 19.22C45.5154 19.22 46.2304 19.02 46.7404 18.62C47.2504 18.21 47.5054 17.565 47.5054 16.685C47.5054 16.175 47.3654 15.76 47.0854 15.44C46.8054 15.12 46.4354 14.855 45.9754 14.645C45.5254 14.435 45.0104 14.25 44.4304 14.09C43.8504 13.93 43.2554 13.755 42.6454 13.565C42.0354 13.365 41.4404 13.125 40.8604 12.845C40.2804 12.555 39.7604 12.18 39.3004 11.72C38.8504 11.25 38.4854 10.67 38.2054 9.98C37.9254 9.28 37.7854 8.42 37.7854 7.4C37.7854 6.58 37.9504 5.78 38.2804 5C38.6104 4.22 39.0954 3.525 39.7354 2.915C40.3754 2.305 41.1604 1.82 42.0904 1.46C43.0204 1.09 44.0854 0.904999 45.2854 0.904999C45.9554 0.904999 46.6054 0.959999 47.2354 1.07C47.8754 1.17 48.4804 1.325 49.0504 1.535C49.6204 1.735 50.1504 1.98 50.6404 2.27C51.1404 2.55 51.5854 2.87 51.9754 3.23L50.7154 5.585ZM65.1651 14.69V23H60.0951V14.69L52.1751 1.145H56.6451C57.0851 1.145 57.4301 1.25 57.6801 1.46C57.9401 1.66 58.1551 1.92 58.3251 2.24L61.4151 8.6C61.6751 9.1 61.9101 9.57 62.1201 10.01C62.3301 10.44 62.5151 10.865 62.6751 11.285C62.8251 10.855 62.9951 10.425 63.1851 9.995C63.3851 9.555 63.6151 9.09 63.8751 8.6L66.9351 2.24C67.0051 2.11 67.0901 1.98 67.1901 1.85C67.2901 1.72 67.4051 1.605 67.5351 1.505C67.6751 1.395 67.8301 1.31 68.0001 1.25C68.1801 1.18 68.3751 1.145 68.5851 1.145H73.0851L65.1651 14.69Z" fill="#1E212C"/>
<path d="M86.8677 5.585C86.7177 5.825 86.5577 6.005 86.3877 6.125C86.2277 6.245 86.0177 6.305 85.7577 6.305C85.5277 6.305 85.2777 6.235 85.0077 6.095C84.7477 5.945 84.4477 5.78 84.1077 5.6C83.7777 5.42 83.3977 5.26 82.9677 5.12C82.5377 4.97 82.0477 4.895 81.4977 4.895C80.5477 4.895 79.8377 5.1 79.3677 5.51C78.9077 5.91 78.6777 6.455 78.6777 7.145C78.6777 7.585 78.8177 7.95 79.0977 8.24C79.3777 8.53 79.7427 8.78 80.1927 8.99C80.6527 9.2 81.1727 9.395 81.7527 9.575C82.3427 9.745 82.9427 9.94 83.5527 10.16C84.1627 10.37 84.7577 10.62 85.3377 10.91C85.9277 11.2 86.4477 11.57 86.8977 12.02C87.3577 12.47 87.7277 13.02 88.0077 13.67C88.2877 14.31 88.4277 15.085 88.4277 15.995C88.4277 17.005 88.2527 17.95 87.9027 18.83C87.5527 19.71 87.0427 20.48 86.3727 21.14C85.7127 21.79 84.8927 22.305 83.9127 22.685C82.9427 23.055 81.8377 23.24 80.5977 23.24C79.9177 23.24 79.2227 23.17 78.5127 23.03C77.8127 22.89 77.1327 22.695 76.4727 22.445C75.8127 22.185 75.1927 21.88 74.6127 21.53C74.0327 21.18 73.5277 20.79 73.0977 20.36L74.5977 17.99C74.7177 17.82 74.8727 17.68 75.0627 17.57C75.2627 17.45 75.4777 17.39 75.7077 17.39C76.0077 17.39 76.3077 17.485 76.6077 17.675C76.9177 17.865 77.2627 18.075 77.6427 18.305C78.0327 18.535 78.4777 18.745 78.9777 18.935C79.4777 19.125 80.0677 19.22 80.7477 19.22C81.6677 19.22 82.3827 19.02 82.8927 18.62C83.4027 18.21 83.6577 17.565 83.6577 16.685C83.6577 16.175 83.5177 15.76 83.2377 15.44C82.9577 15.12 82.5877 14.855 82.1277 14.645C81.6777 14.435 81.1627 14.25 80.5827 14.09C80.0027 13.93 79.4077 13.755 78.7977 13.565C78.1877 13.365 77.5927 13.125 77.0127 12.845C76.4327 12.555 75.9127 12.18 75.4527 11.72C75.0027 11.25 74.6377 10.67 74.3577 9.98C74.0777 9.28 73.9377 8.42 73.9377 7.4C73.9377 6.58 74.1027 5.78 74.4327 5C74.7627 4.22 75.2477 3.525 75.8877 2.915C76.5277 2.305 77.3127 1.82 78.2427 1.46C79.1727 1.09 80.2377 0.904999 81.4377 0.904999C82.1077 0.904999 82.7577 0.959999 83.3877 1.07C84.0277 1.17 84.6327 1.325 85.2027 1.535C85.7727 1.735 86.3027 1.98 86.7927 2.27C87.2927 2.55 87.7377 2.87 88.1277 3.23L86.8677 5.585ZM107.109 5.165H100.959V23H95.8891V5.165H89.7391V1.145H107.109V5.165ZM118.805 18.995C119.485 18.995 120.09 18.885 120.62 18.665C121.16 18.435 121.615 18.11 121.985 17.69C122.355 17.27 122.635 16.76 122.825 16.16C123.025 15.55 123.125 14.86 123.125 14.09V1.145H128.195V14.09C128.195 15.43 127.975 16.66 127.535 17.78C127.105 18.9 126.485 19.865 125.675 20.675C124.865 21.485 123.88 22.115 122.72 22.565C121.56 23.015 120.255 23.24 118.805 23.24C117.345 23.24 116.035 23.015 114.875 22.565C113.715 22.115 112.73 21.485 111.92 20.675C111.11 19.865 110.49 18.9 110.06 17.78C109.63 16.66 109.415 15.43 109.415 14.09V1.145H114.485V14.075C114.485 14.845 114.58 15.535 114.77 16.145C114.97 16.745 115.255 17.26 115.625 17.69C115.995 18.11 116.445 18.435 116.975 18.665C117.515 18.885 118.125 18.995 118.805 18.995ZM151.986 12.065C151.986 13.645 151.711 15.105 151.161 16.445C150.621 17.775 149.856 18.93 148.866 19.91C147.876 20.88 146.681 21.64 145.281 22.19C143.891 22.73 142.346 23 140.646 23H132.156V1.145H140.646C142.346 1.145 143.891 1.42 145.281 1.97C146.681 2.52 147.876 3.28 148.866 4.25C149.856 5.22 150.621 6.375 151.161 7.715C151.711 9.045 151.986 10.495 151.986 12.065ZM146.796 12.065C146.796 10.985 146.656 10.01 146.376 9.14C146.096 8.27 145.691 7.535 145.161 6.935C144.641 6.325 144.001 5.86 143.241 5.54C142.481 5.21 141.616 5.045 140.646 5.045H137.256V19.1H140.646C141.616 19.1 142.481 18.94 143.241 18.62C144.001 18.29 144.641 17.825 145.161 17.225C145.691 16.615 146.096 15.875 146.376 15.005C146.656 14.135 146.796 13.155 146.796 12.065ZM164.042 14.69V23H158.972V14.69L151.052 1.145H155.522C155.962 1.145 156.307 1.25 156.557 1.46C156.817 1.66 157.032 1.92 157.202 2.24L160.292 8.6C160.552 9.1 160.787 9.57 160.997 10.01C161.207 10.44 161.392 10.865 161.552 11.285C161.702 10.855 161.872 10.425 162.062 9.995C162.262 9.555 162.492 9.09 162.752 8.6L165.812 2.24C165.882 2.11 165.967 1.98 166.067 1.85C166.167 1.72 166.282 1.605 166.412 1.505C166.552 1.395 166.707 1.31 166.877 1.25C167.057 1.18 167.252 1.145 167.462 1.145H171.962L164.042 14.69Z" fill="#FF3F3A"/>
</svg>
