<svg width="112" height="16" viewBox="0 0 112 16" fill="none" xmlns="http://www.w3.org/2000/svg">
<path d="M9.67 13.42L9.66 15H0.83V0.669999H9.66V2.25H2.77V7.01H8.35V8.53H2.77V13.42H9.67ZM19.983 9.68L17.733 3.85C17.6663 3.67667 17.5963 3.47667 17.523 3.25C17.4496 3.01667 17.3796 2.77 17.313 2.51C17.173 3.05 17.0296 3.5 16.883 3.86L14.633 9.68H19.983ZM24.023 15H22.523C22.3496 15 22.2096 14.9567 22.103 14.87C21.9963 14.7833 21.9163 14.6733 21.863 14.54L20.523 11.08H14.093L12.753 14.54C12.713 14.66 12.6363 14.7667 12.523 14.86C12.4096 14.9533 12.2696 15 12.103 15H10.603L16.333 0.669999H18.293L24.023 15ZM33.2381 2.91C33.1781 3.01 33.1115 3.08667 33.0381 3.14C32.9715 3.18667 32.8881 3.21 32.7881 3.21C32.6748 3.21 32.5415 3.15333 32.3881 3.04C32.2348 2.92667 32.0415 2.80333 31.8081 2.67C31.5815 2.53 31.3048 2.40333 30.9781 2.29C30.6581 2.17667 30.2681 2.12 29.8081 2.12C29.3748 2.12 28.9915 2.18 28.6581 2.3C28.3315 2.41333 28.0548 2.57 27.8281 2.77C27.6081 2.97 27.4415 3.20667 27.3281 3.48C27.2148 3.74667 27.1581 4.03667 27.1581 4.35C27.1581 4.75 27.2548 5.08333 27.4481 5.35C27.6481 5.61 27.9081 5.83333 28.2281 6.02C28.5548 6.20667 28.9215 6.37 29.3281 6.51C29.7415 6.64333 30.1615 6.78333 30.5881 6.93C31.0215 7.07667 31.4415 7.24333 31.8481 7.43C32.2615 7.61 32.6281 7.84 32.9481 8.12C33.2748 8.4 33.5348 8.74333 33.7281 9.15C33.9281 9.55667 34.0281 10.0567 34.0281 10.65C34.0281 11.2767 33.9215 11.8667 33.7081 12.42C33.4948 12.9667 33.1815 13.4433 32.7681 13.85C32.3615 14.2567 31.8581 14.5767 31.2581 14.81C30.6648 15.0433 29.9881 15.16 29.2281 15.16C28.2948 15.16 27.4481 14.9933 26.6881 14.66C25.9281 14.32 25.2781 13.8633 24.7381 13.29L25.2981 12.37C25.3515 12.2967 25.4148 12.2367 25.4881 12.19C25.5681 12.1367 25.6548 12.11 25.7481 12.11C25.8348 12.11 25.9315 12.1467 26.0381 12.22C26.1515 12.2867 26.2781 12.3733 26.4181 12.48C26.5581 12.5867 26.7181 12.7033 26.8981 12.83C27.0781 12.9567 27.2815 13.0733 27.5081 13.18C27.7415 13.2867 28.0048 13.3767 28.2981 13.45C28.5915 13.5167 28.9215 13.55 29.2881 13.55C29.7481 13.55 30.1581 13.4867 30.5181 13.36C30.8781 13.2333 31.1815 13.0567 31.4281 12.83C31.6815 12.5967 31.8748 12.32 32.0081 12C32.1415 11.68 32.2081 11.3233 32.2081 10.93C32.2081 10.4967 32.1081 10.1433 31.9081 9.87C31.7148 9.59 31.4581 9.35667 31.1381 9.17C30.8181 8.98333 30.4515 8.82667 30.0381 8.7C29.6248 8.56667 29.2048 8.43333 28.7781 8.3C28.3515 8.16 27.9315 8 27.5181 7.82C27.1048 7.64 26.7381 7.40667 26.4181 7.12C26.0981 6.83333 25.8381 6.47667 25.6381 6.05C25.4448 5.61667 25.3481 5.08333 25.3481 4.45C25.3481 3.94333 25.4448 3.45333 25.6381 2.98C25.8381 2.50667 26.1248 2.08667 26.4981 1.72C26.8781 1.35333 27.3415 1.06 27.8881 0.84C28.4415 0.619999 29.0748 0.509999 29.7881 0.509999C30.5881 0.509999 31.3148 0.636666 31.9681 0.89C32.6281 1.14333 33.2081 1.51 33.7081 1.99L33.2381 2.91ZM41.8545 9.29V15H39.9145V9.29L34.6645 0.669999H36.3645C36.5379 0.669999 36.6745 0.713332 36.7745 0.799999C36.8745 0.879999 36.9612 0.986666 37.0345 1.12L40.3145 6.69C40.4345 6.92333 40.5445 7.14333 40.6445 7.35C40.7445 7.55 40.8312 7.75333 40.9045 7.96C40.9779 7.75333 41.0612 7.55 41.1545 7.35C41.2479 7.14333 41.3512 6.92333 41.4645 6.69L44.7345 1.12C44.7945 1.00667 44.8779 0.903333 44.9845 0.81C45.0912 0.716666 45.2279 0.669999 45.3945 0.669999H47.1045L41.8545 9.29Z" fill="white"/>
<path d="M56.285 2.91C56.225 3.01 56.1583 3.08667 56.085 3.14C56.0183 3.18667 55.935 3.21 55.835 3.21C55.7217 3.21 55.5883 3.15333 55.435 3.04C55.2817 2.92667 55.0883 2.80333 54.855 2.67C54.6283 2.53 54.3517 2.40333 54.025 2.29C53.705 2.17667 53.315 2.12 52.855 2.12C52.4217 2.12 52.0383 2.18 51.705 2.3C51.3783 2.41333 51.1017 2.57 50.875 2.77C50.655 2.97 50.4883 3.20667 50.375 3.48C50.2617 3.74667 50.205 4.03667 50.205 4.35C50.205 4.75 50.3017 5.08333 50.495 5.35C50.695 5.61 50.955 5.83333 51.275 6.02C51.6017 6.20667 51.9683 6.37 52.375 6.51C52.7883 6.64333 53.2083 6.78333 53.635 6.93C54.0683 7.07667 54.4883 7.24333 54.895 7.43C55.3083 7.61 55.675 7.84 55.995 8.12C56.3217 8.4 56.5817 8.74333 56.775 9.15C56.975 9.55667 57.075 10.0567 57.075 10.65C57.075 11.2767 56.9683 11.8667 56.755 12.42C56.5417 12.9667 56.2283 13.4433 55.815 13.85C55.4083 14.2567 54.905 14.5767 54.305 14.81C53.7117 15.0433 53.035 15.16 52.275 15.16C51.3417 15.16 50.495 14.9933 49.735 14.66C48.975 14.32 48.325 13.8633 47.785 13.29L48.345 12.37C48.3983 12.2967 48.4617 12.2367 48.535 12.19C48.615 12.1367 48.7017 12.11 48.795 12.11C48.8817 12.11 48.9783 12.1467 49.085 12.22C49.1983 12.2867 49.325 12.3733 49.465 12.48C49.605 12.5867 49.765 12.7033 49.945 12.83C50.125 12.9567 50.3283 13.0733 50.555 13.18C50.7883 13.2867 51.0517 13.3767 51.345 13.45C51.6383 13.5167 51.9683 13.55 52.335 13.55C52.795 13.55 53.205 13.4867 53.565 13.36C53.925 13.2333 54.2283 13.0567 54.475 12.83C54.7283 12.5967 54.9217 12.32 55.055 12C55.1883 11.68 55.255 11.3233 55.255 10.93C55.255 10.4967 55.155 10.1433 54.955 9.87C54.7617 9.59 54.505 9.35667 54.185 9.17C53.865 8.98333 53.4983 8.82667 53.085 8.7C52.6717 8.56667 52.2517 8.43333 51.825 8.3C51.3983 8.16 50.9783 8 50.565 7.82C50.1517 7.64 49.785 7.40667 49.465 7.12C49.145 6.83333 48.885 6.47667 48.685 6.05C48.4917 5.61667 48.395 5.08333 48.395 4.45C48.395 3.94333 48.4917 3.45333 48.685 2.98C48.885 2.50667 49.1717 2.08667 49.545 1.72C49.925 1.35333 50.3883 1.06 50.935 0.84C51.4883 0.619999 52.1217 0.509999 52.835 0.509999C53.635 0.509999 54.3617 0.636666 55.015 0.89C55.675 1.14333 56.255 1.51 56.755 1.99L56.285 2.91ZM69.5044 2.3H64.8644V15H62.9344V2.3H58.2844V0.669999H69.5044V2.3ZM77.1608 13.46C77.7541 13.46 78.2841 13.36 78.7508 13.16C79.2174 12.96 79.6108 12.68 79.9308 12.32C80.2574 11.96 80.5041 11.53 80.6708 11.03C80.8441 10.53 80.9308 9.98 80.9308 9.38V0.669999H82.8608V9.38C82.8608 10.2067 82.7274 10.9733 82.4608 11.68C82.2008 12.3867 81.8241 13 81.3308 13.52C80.8441 14.0333 80.2474 14.4367 79.5408 14.73C78.8341 15.0233 78.0408 15.17 77.1608 15.17C76.2808 15.17 75.4874 15.0233 74.7808 14.73C74.0741 14.4367 73.4741 14.0333 72.9808 13.52C72.4874 13 72.1074 12.3867 71.8408 11.68C71.5808 10.9733 71.4508 10.2067 71.4508 9.38V0.669999H73.3808V9.37C73.3808 9.97 73.4641 10.52 73.6308 11.02C73.8041 11.52 74.0508 11.95 74.3708 12.31C74.6974 12.67 75.0941 12.9533 75.5608 13.16C76.0341 13.36 76.5674 13.46 77.1608 13.46ZM98.7578 7.84C98.7578 8.91333 98.5878 9.89 98.2478 10.77C97.9078 11.65 97.4278 12.4033 96.8078 13.03C96.1878 13.6567 95.4411 14.1433 94.5678 14.49C93.7011 14.83 92.7411 15 91.6878 15H86.3378V0.669999H91.6878C92.7411 0.669999 93.7011 0.843333 94.5678 1.19C95.4411 1.53 96.1878 2.01667 96.8078 2.65C97.4278 3.27667 97.9078 4.03 98.2478 4.91C98.5878 5.79 98.7578 6.76667 98.7578 7.84ZM96.7678 7.84C96.7678 6.96 96.6478 6.17333 96.4078 5.48C96.1678 4.78667 95.8278 4.2 95.3878 3.72C94.9478 3.24 94.4145 2.87333 93.7878 2.62C93.1611 2.36667 92.4611 2.24 91.6878 2.24H88.2778V13.43H91.6878C92.4611 13.43 93.1611 13.3033 93.7878 13.05C94.4145 12.7967 94.9478 12.4333 95.3878 11.96C95.8278 11.48 96.1678 10.8933 96.4078 10.2C96.6478 9.50667 96.7678 8.72 96.7678 7.84ZM106.151 9.29V15H104.211V9.29L98.9614 0.669999H100.661C100.835 0.669999 100.971 0.713332 101.071 0.799999C101.171 0.879999 101.258 0.986666 101.331 1.12L104.611 6.69C104.731 6.92333 104.841 7.14333 104.941 7.35C105.041 7.55 105.128 7.75333 105.201 7.96C105.275 7.75333 105.358 7.55 105.451 7.35C105.545 7.14333 105.648 6.92333 105.761 6.69L109.031 1.12C109.091 1.00667 109.175 0.903333 109.281 0.81C109.388 0.716666 109.525 0.669999 109.691 0.669999H111.401L106.151 9.29Z" fill="#FF3F3A"/>
</svg>
