<svg width="59" height="59" viewBox="0 0 59 59" fill="none" xmlns="http://www.w3.org/2000/svg">
<path d="M53 57.6667L34.3333 39C32.6667 40.3333 30.75 41.3889 28.5833 42.1667C26.4167 42.9444 24.1111 43.3333 21.6667 43.3333C15.6111 43.3333 10.4867 41.2356 6.29333 37.04C2.1 32.8444 0.00222222 27.72 0 21.6667C0 15.6111 2.09778 10.4867 6.29333 6.29333C10.4889 2.1 15.6133 0.00222222 21.6667 0C27.7222 0 32.8467 2.09778 37.04 6.29333C41.2333 10.4889 43.3311 15.6133 43.3333 21.6667C43.3333 24.1111 42.9444 26.4167 42.1667 28.5833C41.3889 30.75 40.3333 32.6667 39 34.3333L57.75 53.0833C58.3611 53.6944 58.6667 54.4444 58.6667 55.3333C58.6667 56.2222 58.3333 57 57.6667 57.6667C57.0556 58.2778 56.2778 58.5833 55.3333 58.5833C54.3889 58.5833 53.6111 58.2778 53 57.6667ZM21.6667 36.6667C25.8333 36.6667 29.3756 35.2078 32.2933 32.29C35.2111 29.3722 36.6689 25.8311 36.6667 21.6667C36.6667 17.5 35.2078 13.9578 32.29 11.04C29.3722 8.12222 25.8311 6.66444 21.6667 6.66667C17.5 6.66667 13.9578 8.12556 11.04 11.0433C8.12222 13.9611 6.66444 17.5022 6.66667 21.6667C6.66667 25.8333 8.12556 29.3756 11.0433 32.2933C13.9611 35.2111 17.5022 36.6689 21.6667 36.6667Z" fill="white"/>
</svg>
